HIERARCHY
ROOT Hips
{
  OFFSET 74.0196 97.4445 -31.1285
  CHANNELS 6 Xposition Yposition Zposition Zrotation Xrotation Yrotation
  JOINT RightUpLeg
  {
    OFFSET -8.9458 -8.66707 0.101652
    CHANNELS 3 Zrotation Xrotation Yrotation
    JOINT RightLeg
    {
      OFFSET -2.94875e-013 -44.4227 1.3727
      CHANNELS 3 Zrotation Xrotation Yrotation
      JOINT RightFoot
      {
        OFFSET 0.253549 -42.0924 -1.46059
        CHANNELS 3 Zrotation Xrotation Yrotation
        JOINT RightToes
        {
          OFFSET 0.04 -4.41509 8.4991
          CHANNELS 3 Zrotation Xrotation Yrotation
          End Site
          {
            OFFSET -0.08 -0.137448 9.77979
          }
        }
      }
    }
  }
  JOINT Spine
  {
    OFFSET -5.68434e-014 11.8905 -6.39488e-014
    CHANNELS 3 Zrotation Xrotation Yrotation
    JOINT Spine1
    {
      OFFSET 5.68434e-014 25.6574 0.127663
      CHANNELS 3 Zrotation Xrotation Yrotation
      JOINT HEad
      {
        OFFSET 4.26326e-014 8.73416 0.011341
        CHANNELS 3 Zrotation Xrotation Yrotation
        End Site
        {
          OFFSET -0.29 12.7742 2.51395
        }
      }
      JOINT LeftShoulder1
      {
        OFFSET 8.99 -0.362252 -0.22
        CHANNELS 3 Zrotation Xrotation Yrotation
        JOINT LeftArm
        {
          OFFSET 10.2827 -0.00338 0.322123
          CHANNELS 3 Zrotation Xrotation Yrotation
          JOINT LeftForeArm
          {
            OFFSET 32.7669 0.099144 -1.42434
            CHANNELS 3 Zrotation Xrotation Yrotation
            JOINT LeftHand
            {
              OFFSET 27.5643 0.085362 1.02216
              CHANNELS 3 Zrotation Xrotation Yrotation
              End Site
              {
                OFFSET 16.7443 -0.6 1.50291
              }
            }
          }
        }
      }
      JOINT RightShoulder
      {
        OFFSET -8.99 -0.362252 -0.22
        CHANNELS 3 Zrotation Xrotation Yrotation
        JOINT RightArm
        {
          OFFSET -10.2827 -0.00338 0.322123
          CHANNELS 3 Zrotation Xrotation Yrotation
          JOINT RightForeArm
          {
            OFFSET -32.8971 0.099144 -1.42434
            CHANNELS 3 Zrotation Xrotation Yrotation
            JOINT RightHand
            {
              OFFSET -27.4921 0.085362 1.02216
              CHANNELS 3 Zrotation Xrotation Yrotation
              End Site
              {
                OFFSET -16.6312 -0.6 1.50291
              }
            }
          }
        }
      }
    }
  }
  JOINT LeftUpLeg
  {
    OFFSET 8.9458 -8.66707 0.101652
    CHANNELS 3 Zrotation Xrotation Yrotation
    JOINT LeftLeg
    {
      OFFSET 7.10543e-014 -44.4227 1.3727
      CHANNELS 3 Zrotation Xrotation Yrotation
      JOINT LeftFoot
      {
        OFFSET -0.253549 -42.0924 -1.46059
        CHANNELS 3 Zrotation Xrotation Yrotation
        JOINT LeftToes
        {
          OFFSET -0.04 -4.41509 8.4991
          CHANNELS 3 Zrotation Xrotation Yrotation
          End Site
          {
            OFFSET 0.08 -0.047448 9.77979
          }
        }
      }
    }
  }
}
MOTION
Frames:	19
Frame Time:	0.0166667
63.0507 90.0493 -4.43574 0.624026 4.0909 -122.824 -15.5732 -4.16987 -2.32914 5.81931 37.1831 -7.8481 0.98569 -2.51296 -0.182341 -31.0726 -40.2358 -16.6993 -1.23738 8.08985 5.38672 -0.950429 15.6735 11.2546 -5.06092 -11.4255 11.3043 -5.03302e-021 -3.88251e-019 1.21329e-020 -57.8437 -55.4635 -15.4117 -8.68129 39.7532 -114.982 28.4301 1.87527 -27.5187 11.9813 3.2892 19.1018 76.6592 -30.0678 50.2262 -18.1437 44.0626 143.42 -18.7919 15.5607 -39.6543 18.728 -37.2166 4.90804 15.5954 53.2657 -29.666 -21.1099 9.61438 3.12883 17.2633 -26.45 -7.64044 
62.8874 90.5022 -3.77687 1.3445 4.06189 -124.749 -15.4025 -4.77398 -2.5517 4.44148 35.3794 -5.10757 1.70622 -1.73551 -0.221291 -30.3157 -39.9239 -15.5758 -1.17945 7.91886 5.41317 -0.740166 15.3307 11.2698 -4.77801 -11.5609 11.6193 -5.03302e-021 -3.88251e-019 1.21329e-020 -55.9365 -56.3312 -15.1196 -8.10907 39.8542 -115.958 28.6994 1.93364 -26.9996 12.1324 3.28694 18.9041 76.2765 -29.6737 49.7668 -17.917 43.8686 143.313 -19.1301 15.6625 -39.6258 19.6066 -36.857 4.62436 14.1073 52.3545 -28.1802 -20.7454 10.0443 3.1477 17.3643 -26.7925 -8.00442 
62.602 91.0698 -3.03757 2.27638 3.94531 -126.922 -14.9392 -5.54278 -2.75085 2.66901 33.3241 -1.98011 2.95725 -1.79481 -0.285028 -27.9732 -38.2003 -13.4879 -1.11504 7.68504 5.41819 -0.550525 14.8716 11.2353 -4.43372 -11.7428 12.092 -5.03302e-021 -3.88251e-019 1.21329e-020 -53.913 -57.8551 -14.9605 -7.45026 40.1135 -116.808 29.1739 1.99586 -26.2545 12.3143 3.30687 18.8149 75.8834 -29.1677 49.1782 -17.5713 43.7127 143.05 -19.4124 15.7274 -39.4878 20.2918 -35.9314 4.17721 12.7359 50.6134 -26.533 -19.657 9.2052 2.83652 17.1447 -26.1637 -7.42966 
62.1957 91.6734 -2.22368 3.36407 3.73018 -129.275 -14.2902 -6.41709 -2.93264 0.703503 31.0415 1.27268 4.64468 -2.58996 -0.344723 -24.4732 -35.0981 -10.8775 -1.01446 7.39195 5.38624 -0.379448 14.3134 11.1167 -4.06014 -11.9545 12.7048 -5.03302e-021 -3.88251e-019 1.21329e-020 -51.8095 -60.1248 -14.9831 -6.98327 40.6665 -117.13 29.7078 2.06585 -25.4422 12.5172 3.35356 18.8714 75.4743 -28.6392 48.5758 -17.1139 43.6106 142.628 -19.6101 15.7485 -39.2553 20.7297 -34.5449 3.61471 11.7387 48.2339 -24.8573 -18.0875 7.22949 2.30121 16.4912 -24.5097 -6.04339 
61.6914 92.2301 -1.35093 4.54013 3.42243 -131.698 -13.5922 -7.34369 -3.13583 -1.18134 28.6336 4.31206 6.60901 -3.94534 -0.362747 -20.3837 -30.817 -8.27722 -0.86466 7.05504 5.30664 -0.221259 13.6907 10.8927 -3.69214 -12.187 13.3957 -5.03302e-021 -3.88251e-019 1.21329e-020 -49.8119 -63.1605 -15.419 -6.93502 41.6318 -116.508 30.1878 2.14104 -24.6911 12.7142 3.42303 19.075 75.0732 -28.191 48.1034 -16.5881 43.5863 142.085 -19.7314 15.7322 -38.9502 20.9495 -32.8945 3.05373 11.2151 45.4996 -23.1871 -16.416 4.50598 1.70747 15.3728 -22.1016 -4.29664 
61.1408 92.6814 -0.441989 5.72594 3.04624 -134.047 -12.9655 -8.2801 -3.41236 -2.73384 26.2874 6.8123 8.64921 -5.64519 -0.311757 -16.2411 -25.7792 -6.10886 -0.687827 6.70524 5.17315 -0.0754392 13.059 10.558 -3.35836 -12.4457 14.0677 -5.03302e-021 -3.88251e-019 1.21329e-020 -48.3868 -66.8666 -16.8012 -7.44142 43.0389 -114.561 30.5532 2.21733 -24.0668 12.866 3.50257 19.3889 74.7419 -27.9188 47.9074 -16.0776 43.661 141.501 -19.8097 15.6947 -38.6032 21.0454 -31.2308 2.63502 11.0614 42.7358 -21.4879 -14.9643 1.58615 1.18815 13.9684 -19.4871 -2.71575 
60.615 93.0106 0.478219 6.83639 2.64397 -136.159 -12.486 -9.18777 -3.79207 -3.7901 24.2605 8.53243 10.5573 -7.48968 -0.186462 -12.4367 -20.562 -4.56054 -0.534042 6.38488 4.98354 0.0480847 12.4888 10.1188 -3.07475 -12.7484 14.6104 -5.03302e-021 -3.88251e-019 1.21329e-020 -48.5799 -70.9862 -20.2393 -8.53379 44.7786 -110.971 30.7959 2.29569 -23.563 12.9304 3.57383 19.7503 74.5699 -27.8902 48.1027 -15.6975 43.8318 140.99 -19.878 15.6549 -38.2622 21.1321 -29.7938 2.46868 11.0435 40.2427 -19.7695 -13.8491 -0.995785 0.80058 12.6023 -17.2279 -1.65513 
60.1833 93.2355 1.38541 7.78953 2.26939 -137.884 -12.1878 -10.0378 -4.24828 -4.28757 22.8728 9.34801 12.1472 -9.35807 -0.000402459 -9.19007 -15.718 -3.60337 -0.454627 6.13673 4.74018 0.129341 12.0521 9.58726 -2.84595 -13.1123 14.9278 -5.03302e-021 -3.88251e-019 1.21329e-020 -52.6178 -75.0492 -27.9926 -10.1451 46.6298 -105.528 30.9441 2.38302 -23.1213 12.8738 3.61865 20.0936 74.6439 -28.1293 48.7383 -15.5686 44.0536 140.675 -19.9436 15.6279 -37.9997 21.2971 -28.7474 2.60769 10.9284 38.2242 -18.157 -12.9993 -2.87156 0.548627 11.5672 -15.6826 -1.22044 
59.8917 93.3881 2.25692 8.52181 1.97477 -139.113 -12.0828 -10.8229 -4.68476 -4.22759 22.4673 9.23963 13.2616 -11.208 0.222456 -6.59627 -11.6429 -3.10538 -0.470262 5.99326 4.44948 0.150447 11.8045 8.97852 -2.67397 -13.5391 14.964 -5.03302e-021 -3.88251e-019 1.21329e-020 -64.3722 -78.2246 -43.9115 -12.1442 48.35 -98.1587 31.0333 2.48875 -22.6722 12.6773 3.62449 20.3712 75.0126 -28.6119 49.7747 -15.7826 44.2408 140.666 -19.9751 15.6211 -37.9088 21.5741 -28.1458 3.05347 10.5909 36.7458 -16.8558 -12.2916 -3.89188 0.414975 11.0079 -14.9629 -1.33587 
59.748 93.5052 3.0754 9.01388 1.80356 -139.806 -12.1564 -11.5176 -4.95845 -3.61227 23.2318 8.25054 13.7751 -12.9563 0.44255 -4.70277 -8.58938 -2.93643 -0.52354 5.97181 4.11917 0.10833 11.7707 8.31175 -2.57082 -14.0047 14.7192 -5.03302e-021 -3.88251e-019 1.21329e-020 -84.9153 -79.1913 -68.9782 -14.4056 49.7444 -88.9315 31.0674 2.62404 -22.1707 12.3381 3.58746 20.5669 75.6589 -29.272 51.0825 -16.3673 44.2909 141.024 -19.9125 15.6327 -38.0788 21.947 -27.932 3.77287 10.0505 35.7256 -16.0603 -11.6675 -4.09967 0.374181 10.9024 -14.9735 -1.83987 
59.7329 93.6079 3.82396 9.27335 1.75736 -139.998 -12.3968 -12.1027 -4.93574 -2.4096 25.1619 6.46335 13.6025 -14.435 0.605253 -3.56783 -6.75019 -3.00498 -0.558103 6.06451 3.76292 0.00811673 11.9347 7.61366 -2.56591 -14.4616 14.2517 -5.03302e-021 -3.88251e-019 1.21329e-020 -103.307 -77.2729 -92.0949 -16.8688 50.6268 -78.0551 30.9802 2.80421 -21.6175 11.8699 3.51288 20.6966 76.4877 -30.0178 52.4657 -17.2621 44.1217 141.74 -19.6922 15.6511 -38.5599 22.3356 -27.9924 4.69618 9.44302 35.0183 -15.8812 -11.1595 -3.69488 0.395314 11.0996 -15.4643 -2.54754 
59.8178 93.6958 4.48605 9.32196 1.78829 -139.793 -12.7915 -12.5769 -4.56124 -0.580136 28.058 4.00331 12.748 -15.4153 0.659356 -3.25732 -6.26909 -3.25083 -0.574301 6.2379 3.39897 -0.136772 12.2413 6.91814 -2.70301 -14.8536 13.6669 -5.03302e-021 -3.88251e-019 1.21329e-020 -68.5368 -69.2735 -66.0953 -14.3712 36.36 -69.8138 30.4958 3.51829 -19.4893 11.3036 3.41336 20.7998 77.3397 -30.7466 53.7045 -18.3244 43.7036 142.713 -19.2778 15.658 -39.3315 22.6199 -28.216 5.71302 8.93945 34.4993 -16.305 -10.836 -2.97447 0.447937 11.3876 -16.1012 -3.28113 
59.9735 93.7623 5.05299 9.19741 1.81531 -139.347 -13.3026 -12.9473 -3.89941 1.83448 31.5466 1.07111 11.3738 -15.6928 0.590221 -3.77409 -7.13862 -3.62877 -0.622125 6.44274 3.05076 -0.311306 12.6105 6.26251 -3.02681 -15.1371 13.0944 -5.03302e-021 -3.88251e-019 1.21329e-020 -45.8267 -57.1093 -53.8495 -11.6739 17.1451 -60.019 28.7568 4.2393 -18.221 10.6861 3.30551 20.9245 78.0301 -31.3572 54.6064 -19.3693 43.0798 143.78 -18.6848 15.6345 -40.2932 22.6912 -28.5148 6.68487 8.65428 34.0786 -17.1766 -10.7313 -2.23351 0.508626 11.5749 -16.5671 -3.88829 
60.1668 93.8198 5.53362 8.97564 1.77251 -138.841 -13.8234 -13.2094 -3.11805 4.61435 35.1609 -2.0233 9.80196 -15.185 0.435468 -4.97468 -9.08274 -4.08478 -0.707478 6.63541 2.73888 -0.488329 12.9606 5.68147 -3.56325 -15.3003 12.6587 -5.03302e-021 -3.88251e-019 1.21329e-020 -31.5203 -45.2631 -50.1016 -8.9061 -2.59909 -49.0816 25.6729 4.82379 -18.4964 10.075 3.20583 21.1081 78.4044 -31.7597 55.0511 -20.2227 42.3647 144.756 -17.9872 15.5716 -41.2848 22.5224 -28.81 7.48354 8.59609 33.6632 -18.2329 -10.8148 -1.66732 0.562667 11.5494 -16.6566 -4.25894 
60.3713 93.8864 5.94712 8.73568 1.61651 -138.444 -14.2343 -13.4046 -2.41787 7.36202 38.6004 -4.88139 8.40062 -14.0395 0.26231 -6.55723 -11.5756 -4.53034 -0.826402 6.78526 2.48281 -0.644329 13.2313 5.20567 -4.30012 -15.3696 12.4485 -5.03302e-021 -3.88251e-019 1.21329e-020 -22.3675 -36.4531 -49.6598 -6.11558 -18.8761 -38.4944 21.9774 5.31564 -19.9457 9.52818 3.12683 21.3612 78.3924 -31.8896 55.0141 -20.7612 41.7212 145.483 -17.3057 15.4784 -42.1243 22.154 -29.044 8.02289 8.68746 33.1868 -19.1858 -11.0162 -1.35687 0.601278 11.2873 -16.3103 -4.3395 
60.5665 93.9812 6.31647 8.54161 1.33792 -138.279 -14.437 -13.5858 -1.95026 9.63478 41.7415 -7.12963 7.43064 -12.5305 0.116883 -8.16467 -14.049 -4.85214 -0.954591 6.88056 2.29777 -0.76944 13.3981 4.86223 -5.17339 -15.4008 12.4951 -5.03302e-021 -3.88251e-019 1.21329e-020 -17.5484 -31.2684 -50.1207 -4.0307 -29.8697 -30.2809 18.5652 5.76818 -21.7731 9.09069 3.07424 21.6596 78.0381 -31.7241 54.5644 -20.9245 41.3237 145.856 -16.7802 15.3808 -42.6483 21.6734 -29.178 8.27867 8.81567 32.6167 -19.8079 -11.2641 -1.29416 0.620843 10.818 -15.5754 -4.13624 
60.7373 94.1159 6.6609 8.42697 0.955969 -138.409 -14.3848 -13.7763 -1.77162 11.1041 44.5448 -8.53137 6.97408 -10.9016 0.00679217 -9.53017 -16.1226 -4.96832 -1.06112 6.9284 2.19286 -0.871353 13.4751 4.67362 -6.06677 -15.4568 12.7668 -5.03302e-021 -3.88251e-019 1.21329e-020 -16.4539 -28.9403 -50.3516 -3.54079 -36.0587 -26.1807 16.038 6.13394 -23.3957 8.78051 3.04545 21.9497 77.4948 -31.2952 53.8364 -20.7058 41.3144 145.83 -16.5322 15.3102 -42.7439 21.1791 -29.1961 8.28431 8.8813 31.964 -19.986 -11.5122 -1.434 0.621564 10.1817 -14.5392 -3.70325 
60.8764 94.2878 6.99157 8.38983 0.503944 -138.83 -14.0914 -13.9481 -1.84678 11.644 46.9596 -9.03316 6.9696 -9.27128 -0.0832469 -10.5598 -17.6908 -4.87241 -1.13081 6.95025 2.17066 -0.974565 13.5063 4.65201 -6.82817 -15.5848 13.1839 -5.03302e-021 -3.88251e-019 1.21329e-020 -18.4533 -28.7036 -49.9592 -5.22016 -38.075 -26.917 14.7649 6.28526 -24.6716 8.58 3.02927 22.1636 76.9865 -30.6858 52.9929 -20.1389 41.7647 145.414 -16.6292 15.2868 -42.3684 20.7497 -29.1101 8.11021 8.82312 31.2822 -19.7224 -11.7429 -1.73093 0.605588 9.41109 -13.2882 -3.12207 
60.9851 94.4801 7.31243 8.40101 0.0173077 -139.485 -13.6198 -14.0264 -2.07995 11.346 48.8875 -8.75977 7.28993 -7.64779 -0.172438 -11.3047 -18.8471 -4.63083 -1.17167 6.97509 2.2254 -1.11253 13.5504 4.79074 -7.30164 -15.8061 13.6456 -5.03302e-021 -3.88251e-019 1.21329e-020 -23.099 -30.4315 -48.9965 -8.90419 -35.6645 -31.8009 14.8473 6.11358 -25.8108 8.43694 3.00797 22.2406 76.7504 -30.0056 52.1925 -19.2901 42.6543 144.662 -17.0625 15.3084 -41.5568 20.427 -28.9563 7.84047 8.62081 30.6481 -19.1017 -11.9561 -2.14369 0.576129 8.54051 -11.9087 -2.48458 
